<svg id="Layer_1" data-name="Layer 1" xmlns="http://www.w3.org/2000/svg" viewBox="0 0 200 200"><path d="M188.84,7.37a521.84,521.84,0,0,0-5.2,142.37q2,20,5.57,39.75c.33,1.89,3.23,1.09,2.89-.8a514.85,514.85,0,0,1-7.67-70.38,521.18,521.18,0,0,1,2-70.68q1.91-19.83,5.35-39.46c.33-1.89-2.56-2.7-2.9-.8Z"/><path d="M190.57,187.8a212.19,212.19,0,0,1-36.5-4c-5.9-1.18-11.72-2.64-17.51-4.28a164.74,164.74,0,0,0-17.22-4.3A51.15,51.15,0,0,0,101.8,175c-5.76,1-11.29,3-16.91,4.53a147.75,147.75,0,0,1-35.26,4.83c-13.46.38-26.91-.47-40.33-1.34l1.5,1.5a680,680,0,0,0,4.84-69.42A677.47,677.47,0,0,0,13.37,46Q11.72,26.52,9,7.14C8.69,5.23,5.8,6,6.07,7.94a673.63,673.63,0,0,1,6.18,68.91,677.77,677.77,0,0,1-.88,69.1q-1.23,19.32-3.57,38.56c-.11.84.77,1.46,1.5,1.5,23.66,1.53,47.79,3,71.12-2.28,5.8-1.32,11.42-3.28,17.17-4.75A48.44,48.44,0,0,1,115,177.57a105.29,105.29,0,0,1,17.34,3.83c5.84,1.66,11.69,3.27,17.63,4.56a216.59,216.59,0,0,0,40.6,4.84c1.93,0,1.93-3,0-3Z"/><path d="M5.3,9.07C27,14.18,49.42,13.88,71.52,12.42,93.88,11,116.25,8.31,138.69,9a159.32,159.32,0,0,1,36.87,5.12,1.5,1.5,0,0,0,.8-2.89c-21.46-5.81-43.85-5.95-65.89-4.66-22.41,1.32-44.78,4.06-67.26,3.78A170.87,170.87,0,0,1,6.1,6.17c-1.88-.44-2.68,2.45-.8,2.9Z"/></svg>