<svg id="Layer_1" data-name="Layer 1" xmlns="http://www.w3.org/2000/svg" viewBox="0 0 200 200"><path d="M16.64,12.45q-.93,34.52-3.35,69T7,149.89Q4.73,169.21,2,188.49a1.55,1.55,0,0,0,1,1.84,1.5,1.5,0,0,0,1.84-1.05q4.8-34.23,8.1-68.66t5.08-69.09q1-19.53,1.53-39.08c.05-1.93-2.95-1.93-3,0Z"/><path d="M9,186.58q34.28-.83,68.55,0t68.24,3.34q19.2,1.41,38.37,3.35c1.92.19,1.91-2.81,0-3q-34.12-3.43-68.38-5.23t-68.28-1.88q-19.26-.06-38.5.41c-1.93,0-1.94,3,0,3Z"/><path d="M189.11,192.5q-.62-35.15.91-70.29,1.53-34.86,5.16-69.59.91-8.73,2-17.45c.56-4.65,2.17-10.54-1.05-14.59-2.6-3.27-7.09-3.79-11-4.11q-8.82-.73-17.64-1.42-35.15-2.75-70.33-4.92T26.76,6.38L18.05,6c-1.93-.08-1.93,2.92,0,3q34.59,1.48,69.16,3.53t69.35,4.68q8.58.64,17.14,1.33l8.7.71a45.45,45.45,0,0,1,6.88.79A7.43,7.43,0,0,1,194,22.81c1.32,2,1,4.62.79,6.88-.64,5.6-1.36,11.19-2,16.79q-3.78,34.31-5.5,68.81T186,184.08c0,2.81.06,5.61.11,8.42,0,1.93,3,1.93,3,0Z"/></svg>