<svg id="Layer_1" data-name="Layer 1" xmlns="http://www.w3.org/2000/svg" viewBox="0 0 200 200"><path d="M14.08,17.57c22.63-5,46-3.49,68.84-.88,23,2.62,46,6.46,69.28,6.18A142.55,142.55,0,0,0,190,17.67c1.85-.53,1.07-3.43-.79-2.89-22.18,6.4-45.45,5.75-68.19,3.44-23.14-2.34-46.17-6.39-69.47-6.91a159.4,159.4,0,0,0-38.3,3.37c-1.88.41-1.09,3.31.8,2.89Z"/><path d="M186,15c1.14,22.12-.65,44.22-2.34,66.26s-2.82,44.07-2.63,66.17q.17,18.75,1.37,37.46l1.5-1.5q-33.76,2.66-67.65,3.18t-67.71-1.15q-19.08-.93-38.12-2.54l1.5,1.5q0-33.79,1.31-67.56T17,49.65q1.46-18.94,3.3-37.87c.19-1.92-2.81-1.9-3,0Q14.06,45.41,12,79.14T9.29,146.4q-.42,19-.42,38a1.54,1.54,0,0,0,1.5,1.5q33.74,2.85,67.63,3.57t67.71-.74q19.1-.81,38.14-2.32a1.52,1.52,0,0,0,1.5-1.5q-2.13-33.19-1-66.5c.77-22.06,3.06-44,4.27-66.05A352.37,352.37,0,0,0,189,15c-.1-1.92-3.1-1.93-3,0Z"/></svg>