<svg id="Layer_1" data-name="Layer 1" xmlns="http://www.w3.org/2000/svg" viewBox="0 0 200 200"><path d="M6.33,7.31c25,1.17,50.11,1.37,75.16.83q18.8-.42,37.57-1.35C130.89,6.21,142.72,5.2,154.57,5c12.37-.26,25.09.65,36.48,5.88l-.75-1.29Q187.68,44.15,187,78.87q-.65,34.47.65,68.92.74,19.58,2.11,39.11c.13,1.92,3.13,1.93,3,0q-2.42-34.62-2.88-69.35Q189.47,83.1,191,48.64q.85-19.56,2.34-39.1a1.46,1.46,0,0,0-.74-1.3c-10.18-4.68-21.33-6.18-32.45-6.32-11.78-.14-23.57,1-35.33,1.58C99.58,4.83,74.36,5.55,49.13,5.41q-21.41-.12-42.8-1.1c-1.93-.09-1.92,2.91,0,3Z"/><path d="M7.86,8.2q3.88,19.93,7.43,39.93C17.38,60,19.35,71.82,20.81,83.75c2.82,23.2,3.92,47-.35,70.11A129,129,0,0,1,8,190.65a1.51,1.51,0,0,0,1.69,2.2c21.25-6.64,43.68-6.43,65.63-4.39,22.34,2.07,44.51,5.94,67,6.75,12.88.46,26-1.06,38.77,1.36,1.89.36,2.7-2.53.8-2.89-11.47-2.18-23.13-1.18-34.72-1.35-11.39-.16-22.75-1.23-34.06-2.52-22.34-2.56-44.73-6.15-67.3-5.58A135.07,135.07,0,0,0,8.88,190l1.69,2.2c11-20.95,15.32-44.54,15.67-68,.37-24-3-47.83-7.11-71.38Q15.2,30,10.76,7.4c-.37-1.89-3.27-1.09-2.9.8Z"/></svg>